# xmcd
# 
# Track frame offsets:
#     150
#     12110
#     22554
#     31580
#     43979
#     57833
#     70992
#     81037
#     96418
#     105902
#     120384
#     130072
#     143022
#     154266
#     164565
#     176887
# 
# Disc length: 2542
# 
# Revision: 1
# Processed by: cddbd v1.5.2PL0 Copyright (c) Steve Scherf et al.
# Submitted via: fre:ac v1.0.31
# 
DISCID=c409ec10
DTITLE=Various Artist - Ultimate Country Cd5
DYEAR=2005
DGENRE=Country
TTITLE0=Gene Autry - Tears On My Pillow
TTITLE1=Roger Miller - Please Release Me
TTITLE2=Buck Owen - Rhythm An Boose
TTITLE3=Don Williams - There's Never Been A Time
TTITLE4=Bill Monroe - Blue Moon Of Kentucky
TTITLE5=Hank Williams - Hey Good Lookin'
TTITLE6=Jonny Cash - Get Rhythm
TTITLE7=Kenny Rogers - My Washington Woman
TTITLE8=Willie Nelson - I'm Building Heartaches
TTITLE9=Jeannie C. Rilley - Harper Valley Pta
TTITLE10=Hank Locklin - Happy Jounrey
TTITLE11=Hank Williams - On The Banks Of The Old Pontchartain
TTITLE12=Dave Dudley - Cowboy Boots
TTITLE13=Faron Young - Live Fast, Love Hard, Die Young
TTITLE14=Merle Haggard - The Roots Of My Raising
TTITLE15=Freedy Fender - Baby I Want To Love You
EXTD=YEAR: 2005
EXTT0=
EXTT1=
EXTT2=
EXTT3=
EXTT4=
EXTT5=
EXTT6=
EXTT7=
EXTT8=
EXTT9=
EXTT10=
EXTT11=
EXTT12=
EXTT13=
EXTT14=
EXTT15=
PLAYORDER=
